<svg width="18" height="18" viewBox="0 0 18 18" fill="none" xmlns="http://www.w3.org/2000/svg">
<g id="Search Icon">
<path id="Search Icon_2" fill-rule="evenodd" clip-rule="evenodd" d="M16.09 1.91005C18.6367 4.45677 18.6367 8.58583 16.09 11.1326C13.7384 13.4841 10.0379 13.6643 7.47952 11.6733L1.39157 17.7612C1.07323 18.0796 0.557097 18.0796 0.238756 17.7612C-0.0795853 17.4429 -0.0795852 16.9268 0.238756 16.6084L6.32671 10.5205C4.33567 7.96215 4.51592 4.26157 6.86744 1.91005C9.41417 -0.636682 13.5432 -0.636682 16.09 1.91005ZM14.9371 3.06286C16.8472 4.97291 16.8472 8.0697 14.9371 9.97975C13.0271 11.8898 9.9303 11.8898 8.02025 9.97975C6.11021 8.0697 6.11021 4.9729 8.02025 3.06286C9.9303 1.15281 13.0271 1.15281 14.9371 3.06286Z" fill="#FF6F6F"/>
</g>
</svg>
