<svg width="182" height="51" viewBox="0 0 182 51" fill="none" xmlns="http://www.w3.org/2000/svg">
<rect width="48" height="48" rx="12" fill="#FF6F6F"/>
<g filter="url(#filter0_d_701_471)">
<path d="M34.8758 11.7835V36.875H28.7637V26.5453H19.2561V36.875H13.1441V11.7835H19.2561V21.6128H28.7637V11.7835H34.8758Z" fill="white"/>
</g>
<g filter="url(#filter1_d_701_471)">
<path d="M71.4251 16.5554V36.5H65.313V33.7835C64.6935 34.6652 63.8476 35.3801 62.7753 35.9281C61.7268 36.4523 60.5592 36.7145 59.2725 36.7145C57.7474 36.7145 56.4011 36.3809 55.2335 35.7137C54.0659 35.0226 53.1604 34.0337 52.5171 32.747C51.8737 31.4602 51.552 29.9471 51.552 28.2076V16.5554H57.6283V27.3856C57.6283 28.72 57.9738 29.7565 58.6648 30.4952C59.3559 31.2339 60.2852 31.6032 61.4528 31.6032C62.6442 31.6032 63.5855 31.2339 64.2765 30.4952C64.9675 29.7565 65.313 28.72 65.313 27.3856V16.5554H71.4251ZM87.9679 16.341C90.3031 16.341 92.1617 17.1035 93.5438 18.6285C94.9497 20.1297 95.6526 22.2028 95.6526 24.8478V36.5H89.5763V25.6699C89.5763 24.3355 89.2308 23.2989 88.5398 22.5603C87.8488 21.8216 86.9194 21.4522 85.7518 21.4522C84.5842 21.4522 83.6549 21.8216 82.9639 22.5603C82.2729 23.2989 81.9273 24.3355 81.9273 25.6699V36.5H75.8153V16.5554H81.9273V19.2004C82.5469 18.3188 83.3809 17.6277 84.4293 17.1273C85.4778 16.6031 86.6573 16.341 87.9679 16.341ZM107.477 16.2695C108.883 16.2695 110.11 16.5554 111.159 17.1273C112.231 17.6992 113.053 18.4498 113.625 19.3791V16.5554H119.737V36.4643C119.737 38.2991 119.368 39.9551 118.629 41.4325C117.914 42.9337 116.806 44.1252 115.305 45.0068C113.828 45.8885 111.981 46.3293 109.765 46.3293C106.81 46.3293 104.415 45.6264 102.581 44.2205C100.746 42.8384 99.6973 40.956 99.4352 38.5731H105.476C105.666 39.3356 106.119 39.9313 106.834 40.3602C107.549 40.813 108.431 41.0394 109.479 41.0394C110.742 41.0394 111.743 40.67 112.481 39.9313C113.244 39.2165 113.625 38.0608 113.625 36.4643V33.6406C113.029 34.5699 112.207 35.3324 111.159 35.9281C110.11 36.5 108.883 36.7859 107.477 36.7859C105.833 36.7859 104.344 36.3689 103.01 35.5349C101.675 34.6771 100.615 33.4738 99.8284 31.9249C99.0659 30.3522 98.6846 28.5412 98.6846 26.492C98.6846 24.4427 99.0659 22.6437 99.8284 21.0948C100.615 19.5459 101.675 18.3545 103.01 17.5205C104.344 16.6865 105.833 16.2695 107.477 16.2695ZM113.625 26.5277C113.625 25.0027 113.196 23.7993 112.338 22.9177C111.504 22.036 110.48 21.5952 109.265 21.5952C108.049 21.5952 107.013 22.036 106.155 22.9177C105.321 23.7755 104.904 24.967 104.904 26.492C104.904 28.017 105.321 29.2323 106.155 30.1378C107.013 31.0194 108.049 31.4602 109.265 31.4602C110.48 31.4602 111.504 31.0194 112.338 30.1378C113.196 29.2561 113.625 28.0528 113.625 26.5277ZM130.271 19.8795C130.986 18.7834 131.879 17.9256 132.952 17.3061C134.024 16.6627 135.215 16.341 136.526 16.341V22.8105H134.846C133.321 22.8105 132.177 23.1441 131.415 23.8113C130.652 24.4546 130.271 25.5984 130.271 27.2426V36.5H124.159V16.5554H130.271V19.8795ZM159.821 16.5554L147.311 45.9719H140.734L145.309 35.8209L137.196 16.5554H144.023L148.633 29.0297L153.209 16.5554H159.821ZM169.358 10.0145C171.908 10.0145 173.945 10.6817 175.47 12.0161C177.019 13.3505 177.794 15.233 177.794 17.6635C177.794 19.9034 177.055 21.6548 175.578 22.9177C174.124 24.1568 172.194 24.7882 169.787 24.8121L169.609 27.4928H164.247L164.068 20.8446H166.213C168.048 20.8446 169.442 20.6182 170.395 20.1655C171.372 19.7127 171.86 18.8907 171.86 17.6992C171.86 16.8652 171.634 16.2099 171.181 15.7334C170.729 15.2568 170.097 15.0185 169.287 15.0185C168.429 15.0185 167.762 15.2687 167.285 15.7691C166.809 16.2457 166.57 16.901 166.57 17.735H160.816C160.768 16.2814 161.066 14.9708 161.709 13.8032C162.377 12.6356 163.354 11.7182 164.64 11.051C165.951 10.36 167.524 10.0145 169.358 10.0145ZM166.999 36.7859C165.927 36.7859 165.045 36.4762 164.354 35.8566C163.687 35.2133 163.354 34.4269 163.354 33.4976C163.354 32.5444 163.687 31.7462 164.354 31.1028C165.045 30.4594 165.927 30.1378 166.999 30.1378C168.048 30.1378 168.906 30.4594 169.573 31.1028C170.264 31.7462 170.609 32.5444 170.609 33.4976C170.609 34.4269 170.264 35.2133 169.573 35.8566C168.906 36.4762 168.048 36.7859 166.999 36.7859Z" fill="#181818"/>
</g>
<defs>
<filter id="filter0_d_701_471" x="10.7395" y="9.37889" width="28.1439" height="31.5037" filterUnits="userSpaceOnUse" color-interpolation-filters="sRGB">
<feFlood flood-opacity="0" result="BackgroundImageFix"/>
<feColorMatrix in="SourceAlpha" type="matrix" values="0 0 0 0 0 0 0 0 0 0 0 0 0 0 0 0 0 0 127 0" result="hardAlpha"/>
<feOffset dx="0.801527" dy="0.801527"/>
<feGaussianBlur stdDeviation="1.60305"/>
<feComposite in2="hardAlpha" operator="out"/>
<feColorMatrix type="matrix" values="0 0 0 0 0 0 0 0 0 0 0 0 0 0 0 0 0 0 0.25 0"/>
<feBlend mode="normal" in2="BackgroundImageFix" result="effect1_dropShadow_701_471"/>
<feBlend mode="normal" in="SourceGraphic" in2="effect1_dropShadow_701_471" result="shape"/>
</filter>
<filter id="filter1_d_701_471" x="49.1474" y="7.60991" width="132.654" height="42.727" filterUnits="userSpaceOnUse" color-interpolation-filters="sRGB">
<feFlood flood-opacity="0" result="BackgroundImageFix"/>
<feColorMatrix in="SourceAlpha" type="matrix" values="0 0 0 0 0 0 0 0 0 0 0 0 0 0 0 0 0 0 127 0" result="hardAlpha"/>
<feOffset dx="0.801527" dy="0.801527"/>
<feGaussianBlur stdDeviation="1.60305"/>
<feComposite in2="hardAlpha" operator="out"/>
<feColorMatrix type="matrix" values="0 0 0 0 0 0 0 0 0 0 0 0 0 0 0 0 0 0 0.25 0"/>
<feBlend mode="normal" in2="BackgroundImageFix" result="effect1_dropShadow_701_471"/>
<feBlend mode="normal" in="SourceGraphic" in2="effect1_dropShadow_701_471" result="shape"/>
</filter>
</defs>
</svg>
